<svg xmlns="http://www.w3.org/2000/svg" viewBox="0 0 128 128" width="128" height="128">
  <g fill="#000000">
    <!-- Browser window -->
    <path d="M16 20h96c4.4 0 8 3.6 8 8v72c0 4.4-3.6 8-8 8H16c-4.4 0-8-3.6-8-8V28c0-4.4 3.6-8 8-8zm0 8v8h96v-8H16zm0 16v48h96V44H16z"/>
    
    <!-- Browser dots -->
    <circle cx="22" cy="32" r="2"/>
    <circle cx="30" cy="32" r="2"/>
    <circle cx="38" cy="32" r="2"/>
    
    <!-- Website content lines -->
    <rect x="24" y="52" width="32" height="3" rx="1.5"/>
    <rect x="24" y="60" width="48" height="3" rx="1.5"/>
    <rect x="24" y="68" width="24" height="3" rx="1.5"/>
    <rect x="24" y="76" width="40" height="3" rx="1.5"/>
    
    <!-- Live indicator (pulsing dot) -->
    <circle cx="96" cy="56" r="4">
      <animate attributeName="opacity" values="1;0.3;1" dur="1.5s" repeatCount="indefinite"/>
    </circle>
    <circle cx="96" cy="56" r="2" fill="#00ff00">
      <animate attributeName="opacity" values="1;0.5;1" dur="1.5s" repeatCount="indefinite"/>
    </circle>
    
    <!-- Refresh/sync arrows -->
    <path d="M72 56c0-4.4 3.6-8 8-8s8 3.6 8 8M88 64c0 4.4-3.6 8-8 8s-8-3.6-8-8" stroke="#000000" stroke-width="2" fill="none"/>
    <path d="M86 50l2 2-2 2M74 66l-2-2 2-2" fill="#000000"/>
  </g>
</svg>